<svg width="16" height="15" viewBox="0 0 16 15" fill="none" xmlns="http://www.w3.org/2000/svg">
<path d="M0 7.51464C0 7.21008 0.108853 6.91812 0.302269 6.70267C0.495684 6.48741 0.758187 6.36647 1.03186 6.36647H12.3474L8.15323 2.01453C7.94201 1.81009 7.81444 1.51874 7.80005 1.20738C7.78547 0.896008 7.88551 0.591631 8.07676 0.363982C8.26802 0.136333 8.5343 0.00495629 8.81427 0.000148027C9.09423 -0.0048579 9.36414 0.11729 9.56169 0.338152L15.672 6.67348C15.8813 6.89053 16 7.19469 16 7.51308C16 7.83145 15.8813 8.13564 15.672 8.35268L9.56169 14.6911C9.29217 14.971 8.90893 15.0697 8.55629 14.95C8.20365 14.83 7.93522 14.5101 7.85208 14.1102C7.76896 13.7105 7.88375 13.2918 8.15327 13.0117L12.3474 8.66269H1.0319C0.758238 8.66269 0.495714 8.54175 0.302308 8.32649C0.108893 8.11104 4.00543e-05 7.81909 4.00543e-05 7.51452L0 7.51464Z" fill="#61B03C"/>
</svg>
