<svg width="431" height="397" viewBox="0 0 431 397" fill="none" xmlns="http://www.w3.org/2000/svg">
<path d="M400.649 67.1956C425.029 115.588 431.531 180.096 428.181 220.636L428.174 220.637C419.118 330.058 295.965 420.654 167.416 387.159C112.64 372.882 60.2367 327.854 29.6714 279.637C14.3976 255.542 4.68064 230.81 2.77269 208.898C0.868816 187.033 6.73377 168.135 22.4385 155.232L22.4386 155.232C29.5516 149.387 38.6758 146.129 49.3109 143.849C56.2544 142.361 63.672 141.318 71.4941 140.218C75.7209 139.623 80.0657 139.012 84.5176 138.306C109.721 134.304 137.384 127.343 161.035 103.019L159.602 101.625L161.035 103.019C168.208 95.6418 175.423 87.4255 182.808 79.0154C183.302 78.453 183.797 77.8897 184.292 77.3258C192.21 68.3126 200.344 59.1134 208.92 50.418C226.085 33.0132 244.876 17.7822 266.895 10.2487L266.896 10.2486C300.942 -1.40672 328.268 0.909271 350.061 11.9556C371.91 23.0303 388.468 43.0179 400.649 67.1956Z" stroke="#61B03C" stroke-width="4"/>
</svg>
