<svg width="12" height="12" viewBox="0 0 12 12" fill="none" xmlns="http://www.w3.org/2000/svg">
<path d="M10.9558 4.95605H7.04395V1.04415C7.04395 0.671025 6.84509 0.326542 6.52209 0.13992C6.1991 -0.0466402 5.80091 -0.0466402 5.47791 0.13992C5.15491 0.326481 4.95605 0.670995 4.95605 1.04415V4.95605H1.04415C0.671025 4.95605 0.326542 5.15491 0.13992 5.47791C-0.0466402 5.8009 -0.0466402 6.19909 0.13992 6.52209C0.326481 6.84509 0.670995 7.04395 1.04415 7.04395H4.95605V10.9558C4.95605 11.329 5.15491 11.6735 5.47791 11.8601C5.8009 12.0466 6.19909 12.0466 6.52209 11.8601C6.84509 11.6735 7.04395 11.329 7.04395 10.9558V7.04395H10.9558C11.329 7.04395 11.6735 6.84509 11.8601 6.52209C12.0466 6.1991 12.0466 5.80091 11.8601 5.47791C11.6735 5.15491 11.329 4.95605 10.9558 4.95605Z" fill="white"/>
</svg>
