<svg width="131" height="63" viewBox="0 0 131 63" fill="none" xmlns="http://www.w3.org/2000/svg">
    <g clip-path="url(#clip0_78_170)">
        <path d="M7.31836 63C5.69963 62.4699 4.0311 62.0661 2.76103 60.8292C0.171071 58.3556 -0.351901 55.2004 0.195974 51.8938C1.34153 44.8263 5.37589 39.9547 11.7512 37.0267C13.0711 36.4209 13.0711 36.4209 12.0251 35.3356C10.4562 33.7201 9.0616 31.928 7.74172 30.1106C7.54249 29.8077 7.21874 29.5553 7.31836 29C8.11527 29.101 8.73785 29.6058 9.38534 29.9844C16.707 34.5783 24.6262 37.2287 33.1681 38.2635C45.7444 39.778 57.698 37.8344 69.0789 32.2056C69.6766 31.9027 70.2493 31.5746 70.8221 31.2465C71.1708 31.0445 71.5941 30.6912 71.9179 31.1455C72.1669 31.4989 71.7934 31.827 71.5443 32.1299C69.6268 34.5026 67.3855 36.4714 64.8951 38.1373C59.1673 41.9235 52.8418 43.7914 46.0681 44.4224C38.3979 45.1292 30.9268 44.3467 23.6052 41.8983C23.406 41.8226 23.2068 41.7721 23.0075 41.6964C20.6417 40.7877 20.5919 40.7624 18.9981 42.7565C16.184 46.2903 14.9139 50.3794 14.8143 54.8975C14.7147 59.5672 13.3201 61.4603 9.0367 63C8.48882 63 7.89114 63 7.31836 63ZM8.61334 47.4514C8.91218 46.8203 9.23592 46.1893 9.53476 45.5583C10.8546 42.7565 12.3738 40.1314 15.3871 38.8189C15.9599 38.5664 15.7855 38.3393 15.3871 38.0364C14.2664 37.1782 13.3948 37.9102 12.6228 38.5917C10.0577 40.9139 8.93708 43.9681 8.61334 47.4514Z"
              fill="#61B03C"/>
        <path d="M17.6728 0C18.2154 1.1539 17.9194 2.38306 17.9194 3.56205C17.9194 4.139 17.4754 4.28951 16.9574 4.28951C16.1434 4.28951 15.3047 4.26442 14.4907 4.31459C12.764 4.44002 11.506 5.7946 11.506 7.37494C11.506 8.1024 11.7526 8.47867 12.4926 8.45359C13.5287 8.4285 14.54 8.45359 15.576 8.45359C16.3161 8.45359 16.7107 8.80478 16.7107 9.60749C16.7107 13.4455 17.0314 12.7682 13.8493 12.8183C11.2346 12.8685 11.4813 12.5675 11.4813 15.2767C11.4813 18.2868 11.432 21.297 11.506 24.3072C11.5306 25.3859 11.1113 25.7872 10.1246 25.8875C7.28788 26.1886 7.09054 26.0631 7.04121 23.2286C6.99187 20.2685 7.01654 17.3085 7.04121 14.3234C7.04121 13.4455 6.96721 12.718 5.80785 12.8183C5.46251 12.8434 5.14184 12.6678 5.0925 12.2665C4.96917 11.238 4.96917 10.1844 5.0925 9.15596C5.14184 8.72952 5.48718 8.47867 5.88185 8.52884C6.94254 8.6041 7.04121 7.87664 7.13988 7.09901C7.48522 4.03866 9.01458 1.80611 11.8266 0.576951C12.4186 0.326103 13.0847 0.200679 13.7013 0C15.0334 0 16.3654 0 17.6728 0Z"
              fill="#151515"/>
        <path d="M72.9451 13.8233C72.9451 17.2914 72.9451 20.7351 72.9451 24.2032C72.9451 24.6672 73.0978 25.3022 72.5124 25.4976C71.9016 25.693 71.5198 25.1801 71.1635 24.7649C70.0945 23.4949 70.0945 23.4949 68.6692 24.4963C66.5821 25.9616 64.2405 26.328 61.7717 25.7174C57.1649 24.5451 54.5943 20.6862 55.0524 15.7528C55.4087 11.7718 58.9466 8.4991 63.3497 8.08391C64.6478 7.9618 65.8695 8.23045 67.0403 8.79218C68.3129 9.40276 68.3129 9.40276 68.3129 7.98622C68.3129 6.47199 68.3638 4.98217 68.3129 3.46794C68.2874 2.41775 68.7455 2.00255 69.8145 2.00255C73.6068 2.00255 72.9451 1.80717 72.9706 4.83563C72.9706 7.79083 72.9451 10.8193 72.9451 13.8233ZM59.6592 17.0472C59.6592 19.6849 61.4154 21.4922 63.9606 21.4922C66.4294 21.5166 68.3383 19.5139 68.2874 16.9007C68.2619 14.4583 66.2512 12.4801 63.8333 12.5045C61.2881 12.5289 59.6592 14.3118 59.6592 17.0472Z"
              fill="#151515"/>
        <path d="M44.9875 25.9924C39.8738 25.9679 35.9499 21.9914 36.0005 16.8857C36.0511 12.001 40.1016 8 45.0382 8C50 8 54.0252 12.0501 53.9999 17.0821C53.9493 21.5741 49.8481 26.2133 44.9875 25.9924ZM49.3671 17.0576C49.3671 14.4066 47.5191 12.5165 44.9875 12.5165C42.456 12.5165 40.6332 14.4311 40.6079 17.0576C40.6079 19.5367 42.5572 21.6477 44.8609 21.6723C47.4178 21.6968 49.3671 19.7086 49.3671 17.0576Z"
              fill="#151515"/>
        <path d="M26.0641 25.9865C21.0855 26.2813 16.9494 21.7119 17.0005 17.1426C17.0515 11.6644 20.9578 8.15139 25.9364 8.00399C31.0937 7.85659 34.9745 11.8118 35 16.9952C35 22.0067 31.0682 25.9619 26.0641 25.9865ZM26.013 12.4505C23.4599 12.4505 21.494 14.3912 21.5195 16.9707C21.5195 19.4273 23.6386 21.6628 25.9619 21.6874C28.4129 21.6874 30.5065 19.5501 30.532 16.9952C30.5576 14.4895 28.5406 12.4505 26.013 12.4505Z"
              fill="#151515"/>
    </g>
    <path d="M130.945 11.8233C130.945 15.2914 130.945 18.7351 130.945 22.2032C130.945 22.6672 131.098 23.3022 130.512 23.4976C129.902 23.693 129.52 23.1801 129.163 22.7649C128.094 21.4949 128.094 21.4949 126.669 22.4963C124.582 23.9616 122.241 24.328 119.772 23.7174C115.165 22.5451 112.594 18.6862 113.052 13.7528C113.409 9.7718 116.947 6.4991 121.35 6.08391C122.648 5.9618 123.869 6.23045 125.04 6.79218C126.313 7.40276 126.313 7.40276 126.313 5.98622C126.313 4.47199 126.364 2.98217 126.313 1.46794C126.287 0.417745 126.746 0.00255197 127.815 0.00255197C131.607 0.00255197 130.945 -0.192833 130.971 2.83563C130.971 5.79083 130.945 8.8193 130.945 11.8233ZM117.659 15.0472C117.659 17.6849 119.415 19.4922 121.961 19.4922C124.429 19.5166 126.338 17.5139 126.287 14.9007C126.262 12.4583 124.251 10.4801 121.833 10.5045C119.288 10.5289 117.659 12.3118 117.659 15.0472Z"
          fill="#151515"/>
    <path d="M102.988 23.9924C97.8738 23.9679 93.9499 19.9914 94.0005 14.8857C94.0511 10.001 98.1016 6 103.038 6C108 6 112.025 10.0501 112 15.0821C111.949 19.5741 107.848 24.2133 102.988 23.9924ZM107.367 15.0576C107.367 12.4066 105.519 10.5165 102.988 10.5165C100.456 10.5165 98.6332 12.4311 98.6079 15.0576C98.6079 17.5367 100.557 19.6477 102.861 19.6723C105.418 19.6968 107.367 17.7086 107.367 15.0576Z"
          fill="#151515"/>
    <path d="M84.0641 23.9865C79.0855 24.2813 74.9494 19.7119 75.0005 15.1426C75.0515 9.66436 78.9578 6.15139 83.9364 6.00399C89.0937 5.85659 92.9745 9.81175 93 14.9952C93 20.0067 89.0682 23.9619 84.0641 23.9865ZM84.013 10.4505C81.4599 10.4505 79.494 12.3912 79.5195 14.9707C79.5195 17.4273 81.6386 19.6628 83.9619 19.6874C86.4129 19.6874 88.5065 17.5501 88.532 14.9952C88.5576 12.4895 86.5406 10.4505 84.013 10.4505Z"
          fill="#151515"/>
    <defs>
        <clipPath id="clip0_78_170">
            <rect width="73" height="63" fill="white"/>
        </clipPath>
    </defs>
</svg>
