<svg width="24" height="24" viewBox="0 0 24 24" fill="none" xmlns="http://www.w3.org/2000/svg">
<path fill-rule="evenodd" clip-rule="evenodd" d="M17.5273 15.7984L23.6431 21.9142C24.1189 22.39 24.1204 23.1599 23.6392 23.6413C23.1611 24.1192 22.3792 24.1124 21.9121 23.6453L15.7962 17.5294C11.9549 20.5189 6.39867 20.2483 2.86785 16.7174C-0.95595 12.8937 -0.95595 6.69382 2.86785 2.87017C6.69184 -0.95363 12.8915 -0.95363 16.7151 2.87017C20.246 6.40099 20.5166 11.9571 17.5271 15.7986L17.5273 15.7984ZM14.9844 14.9866C17.8524 12.1186 17.8524 7.46913 14.9844 4.60091C12.1165 1.73293 7.46696 1.73293 4.59874 4.60091C1.73076 7.46889 1.73076 12.1184 4.59874 14.9866C7.46672 17.8546 12.1162 17.8546 14.9844 14.9866Z" fill="#61B03C"/>
</svg>
